<svg width="18" height="18" viewBox="0 0 18 18" fill="none" xmlns="http://www.w3.org/2000/svg">
<mask id="mask0_105_111" style="mask-type:alpha" maskUnits="userSpaceOnUse" x="0" y="0" width="18" height="18">
<rect width="18" height="18" transform="matrix(0 -1 -1 0 18 18)" fill="#D9D9D9"/>
</mask>
<g mask="url(#mask0_105_111)">
<path d="M4.04615 6.8L9.09231 11.8615C9.15385 11.9128 9.21292 11.9487 9.26954 11.9692C9.32574 11.9897 9.38462 12 9.44615 12C9.50769 12 9.56677 11.9897 9.62338 11.9692C9.67959 11.9487 9.73846 11.9128 9.8 11.8615L14.8615 6.78461C14.9538 6.70256 15 6.6 15 6.47692C15 6.35385 14.9487 6.24615 14.8462 6.15385C14.7538 6.06154 14.6437 6.01538 14.5157 6.01538C14.3873 6.01538 14.2821 6.06154 14.2 6.15385L9.44615 10.8923L4.69231 6.13846C4.6 6.04615 4.49497 6 4.37723 6C4.25908 6 4.14872 6.05128 4.04615 6.15385C3.95385 6.24615 3.90769 6.35385 3.90769 6.47692C3.90769 6.6 3.95385 6.70769 4.04615 6.8Z" fill="#1C1B1F"/>
</g>
</svg>
