<svg width="24" height="24" viewBox="0 0 24 24" fill="none" xmlns="http://www.w3.org/2000/svg">
<mask id="mask0_105_108" style="mask-type:alpha" maskUnits="userSpaceOnUse" x="0" y="0" width="24" height="24">
<rect width="24" height="24" fill="#D9D9D9"/>
</mask>
<g mask="url(#mask0_105_108)">
<path d="M11.5 16.5H12.5V11H11.5V16.5ZM12 9.575C12.1667 9.575 12.3127 9.51667 12.438 9.4C12.5627 9.28333 12.625 9.13333 12.625 8.95C12.625 8.78333 12.5627 8.64167 12.438 8.525C12.3127 8.40833 12.1667 8.35 12 8.35C11.8333 8.35 11.6873 8.40833 11.562 8.525C11.4373 8.64167 11.375 8.78333 11.375 8.95C11.375 9.13333 11.4373 9.28333 11.562 9.4C11.6873 9.51667 11.8333 9.575 12 9.575ZM12 21C10.75 21 9.57933 20.7627 8.488 20.288C7.396 19.8127 6.446 19.1707 5.638 18.362C4.82933 17.554 4.18733 16.604 3.712 15.512C3.23733 14.4207 3 13.25 3 12C3 10.75 3.23733 9.579 3.712 8.487C4.18733 7.39567 4.82933 6.44567 5.638 5.637C6.446 4.829 7.396 4.18733 8.488 3.712C9.57933 3.23733 10.75 3 12 3C13.25 3 14.421 3.23733 15.513 3.712C16.6043 4.18733 17.5543 4.829 18.363 5.637C19.171 6.44567 19.8127 7.39567 20.288 8.487C20.7627 9.579 21 10.75 21 12C21 13.25 20.7627 14.4207 20.288 15.512C19.8127 16.604 19.171 17.554 18.363 18.362C17.5543 19.1707 16.6043 19.8127 15.513 20.288C14.421 20.7627 13.25 21 12 21Z" fill="#727272"/>
</g>
</svg>
