<svg width="24" height="24" viewBox="0 0 24 24" fill="none" xmlns="http://www.w3.org/2000/svg">
<mask id="mask0_105_86" style="mask-type:alpha" maskUnits="userSpaceOnUse" x="0" y="0" width="24" height="24">
<rect width="24" height="24" fill="#D9D9D9"/>
</mask>
<g mask="url(#mask0_105_86)">
<path d="M12 19.275C11.5833 19.275 11.2293 19.129 10.938 18.837C10.646 18.5457 10.5 18.1917 10.5 17.775C10.5 17.3583 10.646 17.004 10.938 16.712C11.2293 16.4207 11.5833 16.275 12 16.275C12.4167 16.275 12.7707 16.4207 13.062 16.712C13.354 17.004 13.5 17.3583 13.5 17.775C13.5 18.1917 13.354 18.5457 13.062 18.837C12.7707 19.129 12.4167 19.275 12 19.275ZM12 13.5C11.5833 13.5 11.2293 13.354 10.938 13.062C10.646 12.7707 10.5 12.4167 10.5 12C10.5 11.5833 10.646 11.2293 10.938 10.938C11.2293 10.646 11.5833 10.5 12 10.5C12.4167 10.5 12.7707 10.646 13.062 10.938C13.354 11.2293 13.5 11.5833 13.5 12C13.5 12.4167 13.354 12.7707 13.062 13.062C12.7707 13.354 12.4167 13.5 12 13.5ZM12 7.725C11.5833 7.725 11.2293 7.579 10.938 7.287C10.646 6.99567 10.5 6.64167 10.5 6.225C10.5 5.80833 10.646 5.454 10.938 5.162C11.2293 4.87067 11.5833 4.725 12 4.725C12.4167 4.725 12.7707 4.87067 13.062 5.162C13.354 5.454 13.5 5.80833 13.5 6.225C13.5 6.64167 13.354 6.99567 13.062 7.287C12.7707 7.579 12.4167 7.725 12 7.725Z" fill="white"/>
</g>
</svg>
