<svg width="24" height="24" viewBox="0 0 24 24" fill="none" xmlns="http://www.w3.org/2000/svg">
<mask id="mask0_105_95" style="mask-type:alpha" maskUnits="userSpaceOnUse" x="0" y="0" width="24" height="24">
<rect width="24" height="24" fill="#D9D9D9"/>
</mask>
<g mask="url(#mask0_105_95)">
<path d="M12.025 17.225C12.2417 17.225 12.4293 17.15 12.588 17C12.746 16.85 12.825 16.6667 12.825 16.45C12.825 16.2167 12.746 16.025 12.588 15.875C12.4293 15.725 12.2417 15.65 12.025 15.65C11.8083 15.65 11.625 15.725 11.475 15.875C11.325 16.025 11.25 16.2167 11.25 16.45C11.25 16.6667 11.325 16.85 11.475 17C11.625 17.15 11.8083 17.225 12.025 17.225ZM11.5 13.925H12.475C12.5083 13.4917 12.5917 13.1373 12.725 12.862C12.8583 12.5873 13.1417 12.2417 13.575 11.825C14.025 11.375 14.3583 10.975 14.575 10.625C14.7917 10.275 14.9 9.86667 14.9 9.4C14.9 8.6 14.6207 7.96667 14.062 7.5C13.504 7.03333 12.85 6.8 12.1 6.8C11.3833 6.8 10.775 6.99567 10.275 7.387C9.775 7.779 9.40833 8.23333 9.175 8.75L10.075 9.125C10.2417 8.75833 10.475 8.43733 10.775 8.162C11.075 7.88733 11.5 7.75 12.05 7.75C12.7 7.75 13.175 7.925 13.475 8.275C13.775 8.625 13.925 9.01667 13.925 9.45C13.925 9.8 13.8333 10.1083 13.65 10.375C13.4667 10.6417 13.225 10.9167 12.925 11.2C12.3417 11.7333 11.9583 12.1873 11.775 12.562C11.5917 12.9373 11.5 13.3917 11.5 13.925ZM12 21C10.75 21 9.57933 20.7627 8.488 20.288C7.396 19.8127 6.446 19.1707 5.638 18.362C4.82933 17.554 4.18733 16.604 3.712 15.512C3.23733 14.4207 3 13.25 3 12C3 10.75 3.23733 9.579 3.712 8.487C4.18733 7.39567 4.82933 6.44567 5.638 5.637C6.446 4.829 7.396 4.18733 8.488 3.712C9.57933 3.23733 10.75 3 12 3C13.25 3 14.421 3.23733 15.513 3.712C16.6043 4.18733 17.5543 4.829 18.363 5.637C19.171 6.44567 19.8127 7.39567 20.288 8.487C20.7627 9.579 21 10.75 21 12C21 13.25 20.7627 14.4207 20.288 15.512C19.8127 16.604 19.171 17.554 18.363 18.362C17.5543 19.1707 16.6043 19.8127 15.513 20.288C14.421 20.7627 13.25 21 12 21ZM12 20C14.2333 20 16.125 19.225 17.675 17.675C19.225 16.125 20 14.2333 20 12C20 9.76667 19.225 7.875 17.675 6.325C16.125 4.775 14.2333 4 12 4C9.76667 4 7.875 4.775 6.325 6.325C4.775 7.875 4 9.76667 4 12C4 14.2333 4.775 16.125 6.325 17.675C7.875 19.225 9.76667 20 12 20Z" fill="#0C0C0C"/>
</g>
</svg>
