<svg width="24" height="24" viewBox="0 0 24 24" fill="none" xmlns="http://www.w3.org/2000/svg">
<mask id="mask0_105_100" style="mask-type:alpha" maskUnits="userSpaceOnUse" x="0" y="0" width="24" height="24">
<rect width="24" height="24" fill="#D9D9D9"/>
</mask>
<g mask="url(#mask0_105_100)">
<path d="M6.225 19.45C5.89167 19.45 5.60433 19.3293 5.363 19.088C5.121 18.846 5 18.5583 5 18.225C5 17.8917 5.121 17.604 5.363 17.362C5.60433 17.1207 5.89167 17 6.225 17C6.55833 17 6.846 17.1207 7.088 17.362C7.32933 17.604 7.45 17.8917 7.45 18.225C7.45 18.5583 7.32933 18.846 7.088 19.088C6.846 19.3293 6.55833 19.45 6.225 19.45ZM12.225 19.45C11.8917 19.45 11.604 19.3293 11.362 19.088C11.1207 18.846 11 18.5583 11 18.225C11 17.8917 11.1207 17.604 11.362 17.362C11.604 17.1207 11.8917 17 12.225 17C12.5583 17 12.846 17.1207 13.088 17.362C13.3293 17.604 13.45 17.8917 13.45 18.225C13.45 18.5583 13.3293 18.846 13.088 19.088C12.846 19.3293 12.5583 19.45 12.225 19.45ZM18.225 19.45C17.8917 19.45 17.6043 19.3293 17.363 19.088C17.121 18.846 17 18.5583 17 18.225C17 17.8917 17.121 17.604 17.363 17.362C17.6043 17.1207 17.8917 17 18.225 17C18.5583 17 18.846 17.1207 19.088 17.362C19.3293 17.604 19.45 17.8917 19.45 18.225C19.45 18.5583 19.3293 18.846 19.088 19.088C18.846 19.3293 18.5583 19.45 18.225 19.45ZM6.225 13.45C5.89167 13.45 5.60433 13.3293 5.363 13.088C5.121 12.846 5 12.5583 5 12.225C5 11.8917 5.121 11.604 5.363 11.362C5.60433 11.1207 5.89167 11 6.225 11C6.55833 11 6.846 11.1207 7.088 11.362C7.32933 11.604 7.45 11.8917 7.45 12.225C7.45 12.5583 7.32933 12.846 7.088 13.088C6.846 13.3293 6.55833 13.45 6.225 13.45ZM12.225 13.45C11.8917 13.45 11.604 13.3293 11.362 13.088C11.1207 12.846 11 12.5583 11 12.225C11 11.8917 11.1207 11.604 11.362 11.362C11.604 11.1207 11.8917 11 12.225 11C12.5583 11 12.846 11.1207 13.088 11.362C13.3293 11.604 13.45 11.8917 13.45 12.225C13.45 12.5583 13.3293 12.846 13.088 13.088C12.846 13.3293 12.5583 13.45 12.225 13.45ZM18.225 13.45C17.8917 13.45 17.6043 13.3293 17.363 13.088C17.121 12.846 17 12.5583 17 12.225C17 11.8917 17.121 11.604 17.363 11.362C17.6043 11.1207 17.8917 11 18.225 11C18.5583 11 18.846 11.1207 19.088 11.362C19.3293 11.604 19.45 11.8917 19.45 12.225C19.45 12.5583 19.3293 12.846 19.088 13.088C18.846 13.3293 18.5583 13.45 18.225 13.45ZM6.225 7.45C5.89167 7.45 5.60433 7.329 5.363 7.087C5.121 6.84567 5 6.55833 5 6.225C5 5.89167 5.121 5.604 5.363 5.362C5.60433 5.12067 5.89167 5 6.225 5C6.55833 5 6.846 5.12067 7.088 5.362C7.32933 5.604 7.45 5.89167 7.45 6.225C7.45 6.55833 7.32933 6.84567 7.088 7.087C6.846 7.329 6.55833 7.45 6.225 7.45ZM12.225 7.45C11.8917 7.45 11.604 7.329 11.362 7.087C11.1207 6.84567 11 6.55833 11 6.225C11 5.89167 11.1207 5.604 11.362 5.362C11.604 5.12067 11.8917 5 12.225 5C12.5583 5 12.846 5.12067 13.088 5.362C13.3293 5.604 13.45 5.89167 13.45 6.225C13.45 6.55833 13.3293 6.84567 13.088 7.087C12.846 7.329 12.5583 7.45 12.225 7.45ZM18.225 7.45C17.8917 7.45 17.6043 7.329 17.363 7.087C17.121 6.84567 17 6.55833 17 6.225C17 5.89167 17.121 5.604 17.363 5.362C17.6043 5.12067 17.8917 5 18.225 5C18.5583 5 18.846 5.12067 19.088 5.362C19.3293 5.604 19.45 5.89167 19.45 6.225C19.45 6.55833 19.3293 6.84567 19.088 7.087C18.846 7.329 18.5583 7.45 18.225 7.45Z" fill="white"/>
</g>
</svg>
