<svg width="24" height="24" viewBox="0 0 24 24" fill="none" xmlns="http://www.w3.org/2000/svg">
<mask id="mask0_105_105" style="mask-type:alpha" maskUnits="userSpaceOnUse" x="0" y="0" width="24" height="24">
<rect width="24" height="24" fill="#D9D9D9"/>
</mask>
<g mask="url(#mask0_105_105)">
<path d="M12.05 19.5C9.94995 19.5 8.16662 18.7707 6.69995 17.312C5.23328 15.854 4.49995 14.0833 4.49995 12V10.625L2.39995 12.725L1.69995 12L4.99995 8.7L8.29995 12L7.59995 12.725L5.49995 10.625V12C5.49995 13.8 6.13762 15.3333 7.41295 16.6C8.68762 17.8667 10.2333 18.5 12.05 18.5C12.45 18.5 12.854 18.4583 13.262 18.375C13.6706 18.2917 14.0666 18.175 14.45 18.025L15.2 18.775C14.7166 19.0083 14.2083 19.1873 13.675 19.312C13.1416 19.4373 12.6 19.5 12.05 19.5ZM19 15.3L15.7 12L16.4 11.275L18.5 13.375V12C18.5 10.2 17.8623 8.66667 16.587 7.4C15.3123 6.13333 13.7666 5.5 11.95 5.5C11.55 5.5 11.146 5.54167 10.738 5.625C10.3293 5.70833 9.93328 5.825 9.54995 5.975L8.79995 5.225C9.28328 4.99167 9.79162 4.81267 10.325 4.688C10.8583 4.56267 11.4 4.5 11.95 4.5C14.05 4.5 15.8333 5.22933 17.3 6.688C18.7666 8.146 19.5 9.91667 19.5 12V13.375L21.6 11.275L22.2999 12L19 15.3Z" fill="#ED1B26"/>
</g>
</svg>
